<?xml version="1.0" encoding="UTF-8"?>
<!DOCTYPE svg PUBLIC "-//W3C//DTD SVG 1.1//EN" "http://www.w3.org/Graphics/SVG/1.1/DTD/svg11.dtd">
<!-- Creator: CorelDRAW 2021 (64-Bit) -->
<svg xmlns="http://www.w3.org/2000/svg" xml:space="preserve" width="1.34204in" height="1.26609in" version="1.1" style="shape-rendering:geometricPrecision; text-rendering:geometricPrecision; image-rendering:optimizeQuality; fill-rule:evenodd; clip-rule:evenodd"
viewBox="0 0 47.27 36.59"
 xmlns:xlink="http://www.w3.org/1999/xlink"
 xmlns:xodm="http://www.corel.com/coreldraw/odm/2003">
 <defs>
  <style type="text/css">
   <![CDATA[
    .fil0 {fill:#ffff}
    .fil1 {fill:#ffff;fill-rule:nonzero}
   ]]>
  </style>
 </defs>
 <g id="Layer_x0020_1">
  <metadata id="CorelCorpID_0Corel-Layer"/>
  <g id="_2089745464464">
   <path class="fil0" d="M23.51 20.15l-13.67 -13.67c2.16,-2.16 4.32,-4.32 6.48,-6.48l14.62 0c2.16,2.16 4.32,4.32 6.48,6.48 -4.6,4.6 -9.19,9.2 -13.79,13.79l-0.13 -0.13zm-9.21 -11.57l0 -0 4.03 4.03 0 -2.1 -4.03 -4.03 4.03 -4.03 0 -2.1 -4.03 4.03 0 -2.1 -1.05 1.05 -1.05 1.05 0 0 0 0 0 2.1 0 0 0 2.1 0 0 0 0 2.1 2.1 0 -2.1zm4.2 -8.23l-0 14.53 -0 0 0 0 1.05 1.05 1.05 1.05c-0,-2.8 0,-5.6 -0,-8.4l2.1 -0c0,0 0,8.58 0,10.51l0 0 -0 0 0 0 0.93 0.93 0.93 -0.93 0.12 -0.12 0.12 -0.12 0 -18.5 -2.23 0 -1.81 0 -2.27 -0zm4.2 6.13l0 0 -0 0zm0 0l-2.1 0 0 0 0 -4.2 0 -0 2.1 0 0 0 0 0c0,1.4 -0,2.8 -0,4.2l0 0zm0 12.61l-0 0 0 0zm-2.1 -12.61l0 0 -0 0zm8.4 -2.1l0 -0 0 0zm-2.1 0l0 0 0 -0zm6.19 -1.98l-0.93 0.93 -1.05 1.05 -0 0 0 0 -0 0 -1.05 1.05 -1.05 1.05 -0 0 -0 -2.1 0 -0 0 -0c1.01,-1.01 2.02,-2.02 3.03,-3.03l-0.93 -0.93 -0.12 -0.12c-1.01,1.01 -2.02,2.02 -3.03,3.03l-2.97 -2.97 0 2.1 1.92 1.92 -1.92 -1.92 0 0 0.87 0.87 1.05 1.05 0 0c-0,4.12 0,8.25 0,12.37l0.93 -0.93 0.93 -0.93 0.12 -0.12 0.12 -0.12c0,-0.16 -0,-1.82 0,-1.87l0 0 0.93 0.93 0.93 -0.93 0.12 -0.12 0.12 -0.12 0.93 -0.93 0.93 -0.93 0.12 -0.12 0.12 -0.12 0.93 -0.93 -0.93 -0.93 0 -0 -0 0 0 -0 -1.05 -1.05 -1.05 1.05 1.05 1.05 -1.05 1.05 0 0 -0 0 -1.05 1.05 -1.05 1.05c0,-2.1 0,-4.2 -0,-6.3l0 0 2.1 2.1 1.05 -1.05 -1.05 -1.05 1.05 -1.05 1.05 -1.05 0 -0 0.93 -0.93 -0.93 -0.93 -0.12 -0.12zm-1.98 1.98l0 0 -0 0z"/>
   <g transform="translate(23.635 22.295) scale(0.7) translate(-23.635 -22.295)">
   <path class="fil1" d="M-0 39.79l1.59 0c0.37,0 0.71,0.06 1,0.17 0.3,0.11 0.55,0.27 0.76,0.48 0.21,0.21 0.37,0.46 0.48,0.74 0.11,0.29 0.17,0.61 0.17,0.95 0,0.35 -0.06,0.67 -0.17,0.96 -0.11,0.29 -0.27,0.54 -0.48,0.74 -0.21,0.21 -0.46,0.37 -0.76,0.48 -0.3,0.11 -0.63,0.17 -1,0.17l-1.59 0 0 -4.7zm1.55 3.86c0.26,0 0.49,-0.04 0.68,-0.11 0.2,-0.07 0.36,-0.17 0.49,-0.3 0.13,-0.13 0.23,-0.29 0.3,-0.48 0.07,-0.19 0.1,-0.39 0.1,-0.62 0,-0.23 -0.03,-0.43 -0.1,-0.62 -0.07,-0.19 -0.16,-0.34 -0.3,-0.48 -0.13,-0.13 -0.3,-0.23 -0.49,-0.31 -0.2,-0.07 -0.42,-0.11 -0.68,-0.11l-0.66 0 0 3.02 0.66 0zm4.95 -3.86l0.89 0 0 4.7 -0.89 0 0 -4.7zm4.99 0l1.01 0 1.76 4.7 -0.98 0 -0.39 -1.12 -1.81 0 -0.39 1.12 -0.98 0 1.76 -4.7zm1.12 2.76l-0.42 -1.17 -0.17 -0.57 -0.05 0 -0.17 0.57 -0.42 1.17 1.23 0zm3.99 -2.76l0.87 0 1.44 2.49 0.05 0 1.44 -2.49 0.88 0 0 4.7 -0.88 0 0 -2.32 0.05 -0.79 -0.05 0 -1.19 2.11 -0.53 0 -1.2 -2.11 -0.05 0 0.05 0.79 0 2.32 -0.87 0 0 -4.7zm9.56 4.8c-0.35,0 -0.67,-0.06 -0.97,-0.19 -0.3,-0.13 -0.56,-0.3 -0.78,-0.52 -0.22,-0.22 -0.39,-0.48 -0.51,-0.78 -0.12,-0.3 -0.19,-0.62 -0.19,-0.96 0,-0.34 0.06,-0.66 0.19,-0.96 0.12,-0.3 0.3,-0.56 0.51,-0.78 0.22,-0.22 0.48,-0.39 0.78,-0.52 0.3,-0.13 0.62,-0.19 0.97,-0.19 0.35,0 0.67,0.06 0.97,0.19 0.3,0.13 0.56,0.3 0.78,0.52 0.22,0.22 0.39,0.48 0.51,0.78 0.12,0.3 0.19,0.62 0.19,0.96 0,0.34 -0.06,0.66 -0.19,0.96 -0.12,0.3 -0.3,0.56 -0.51,0.78 -0.22,0.22 -0.48,0.39 -0.78,0.52 -0.3,0.13 -0.62,0.19 -0.97,0.19zm0 -0.84c0.22,0 0.42,-0.04 0.61,-0.12 0.19,-0.08 0.36,-0.19 0.5,-0.33 0.14,-0.14 0.25,-0.31 0.33,-0.51 0.08,-0.2 0.12,-0.42 0.12,-0.66 0,-0.24 -0.04,-0.46 -0.12,-0.66 -0.08,-0.2 -0.19,-0.37 -0.33,-0.51 -0.14,-0.14 -0.31,-0.25 -0.5,-0.33 -0.19,-0.08 -0.39,-0.12 -0.61,-0.12 -0.22,0 -0.42,0.04 -0.61,0.12 -0.19,0.08 -0.36,0.19 -0.5,0.33 -0.14,0.14 -0.25,0.31 -0.33,0.51 -0.08,0.2 -0.12,0.42 -0.12,0.66 0,0.24 0.04,0.46 0.12,0.66 0.08,0.2 0.19,0.37 0.33,0.51 0.14,0.14 0.31,0.25 0.5,0.33 0.19,0.08 0.39,0.12 0.61,0.12zm4.95 -3.96l1.03 0 1.89 3.15 0.05 0 -0.05 -0.91 0 -2.24 0.88 0 0 4.7 -0.93 0 -1.99 -3.33 -0.05 0 0.05 0.91 0 2.42 -0.87 0 0 -4.7zm6.53 0l1.59 0c0.37,0 0.71,0.06 1,0.17 0.3,0.11 0.55,0.27 0.76,0.48 0.21,0.21 0.37,0.46 0.48,0.74 0.11,0.29 0.17,0.61 0.17,0.95 0,0.35 -0.06,0.67 -0.17,0.96 -0.11,0.29 -0.27,0.54 -0.48,0.74 -0.21,0.21 -0.46,0.37 -0.76,0.48 -0.3,0.11 -0.63,0.17 -1,0.17l-1.59 0 0 -4.7zm1.55 3.86c0.26,0 0.49,-0.04 0.68,-0.11 0.2,-0.07 0.36,-0.17 0.49,-0.3 0.13,-0.13 0.23,-0.29 0.3,-0.48 0.07,-0.19 0.1,-0.39 0.1,-0.62 0,-0.23 -0.03,-0.43 -0.1,-0.62 -0.07,-0.19 -0.16,-0.34 -0.3,-0.48 -0.13,-0.13 -0.3,-0.23 -0.49,-0.31 -0.2,-0.07 -0.42,-0.11 -0.68,-0.11l-0.66 0 0 3.02 0.66 0zm6.39 0.94c-0.2,0 -0.39,-0.03 -0.58,-0.09 -0.18,-0.06 -0.35,-0.14 -0.51,-0.26 -0.15,-0.11 -0.29,-0.25 -0.4,-0.42 -0.11,-0.16 -0.2,-0.36 -0.27,-0.57l0.83 -0.33c0.06,0.24 0.17,0.43 0.32,0.59 0.15,0.16 0.35,0.23 0.6,0.23 0.09,0 0.18,-0.01 0.27,-0.04 0.09,-0.02 0.16,-0.06 0.23,-0.1 0.07,-0.05 0.12,-0.1 0.16,-0.17 0.04,-0.07 0.06,-0.15 0.06,-0.24 0,-0.09 -0.02,-0.17 -0.05,-0.24 -0.03,-0.07 -0.08,-0.14 -0.15,-0.2 -0.07,-0.06 -0.17,-0.12 -0.28,-0.18 -0.12,-0.06 -0.26,-0.12 -0.43,-0.18l-0.29 -0.1c-0.13,-0.04 -0.25,-0.1 -0.38,-0.18 -0.13,-0.07 -0.25,-0.16 -0.35,-0.27 -0.1,-0.1 -0.19,-0.23 -0.26,-0.37 -0.07,-0.14 -0.1,-0.3 -0.1,-0.48 0,-0.18 0.04,-0.36 0.11,-0.51 0.07,-0.16 0.17,-0.3 0.31,-0.42 0.13,-0.12 0.29,-0.21 0.48,-0.28 0.19,-0.07 0.39,-0.1 0.62,-0.1 0.24,0 0.44,0.03 0.61,0.1 0.17,0.06 0.32,0.14 0.44,0.24 0.12,0.1 0.22,0.21 0.29,0.32 0.07,0.12 0.13,0.23 0.16,0.33l-0.78 0.33c-0.04,-0.13 -0.12,-0.25 -0.24,-0.35 -0.12,-0.1 -0.27,-0.16 -0.48,-0.16 -0.19,0 -0.35,0.04 -0.48,0.13 -0.13,0.09 -0.19,0.21 -0.19,0.35 0,0.14 0.06,0.26 0.18,0.36 0.12,0.1 0.32,0.19 0.58,0.29l0.3 0.1c0.19,0.07 0.36,0.14 0.51,0.23 0.16,0.09 0.29,0.19 0.4,0.31 0.11,0.12 0.2,0.25 0.26,0.4 0.06,0.15 0.09,0.32 0.09,0.52 0,0.24 -0.05,0.46 -0.15,0.63 -0.1,0.18 -0.22,0.32 -0.38,0.44 -0.15,0.11 -0.33,0.2 -0.52,0.26 -0.19,0.06 -0.38,0.09 -0.56,0.09z"/>
   <path class="fil1" d="M11.4 23.91l0 -0.19 -3.52 0 0 0.19 0.09 0.03c0.75,0.2 0.93,0.73 0.47,1.27l-4.4 5.25 0 -5.02c0,-0.68 0.5,-1.27 1.26,-1.5l0.09 -0.03 0 -0.19 -5.38 0 0 0.19 0.09 0.03c0.77,0.23 1.26,0.82 1.26,1.5l0 10.12c0,0.67 -0.48,1.27 -1.26,1.5l-0.09 0.02 0 0.2 5.38 0 0 -0.2 -0.09 -0.02c-0.75,-0.23 -1.26,-0.84 -1.26,-1.5l0 -4.11 0.29 -0.36 3.14 4.62c0.41,0.57 0.16,1.12 -0.57,1.35l-0.09 0.02 0 0.2 5.78 0 0 -0.2 -0.09 -0.02c-0.74,-0.23 -1.53,-0.76 -1.92,-1.35l-4.5 -6.66 3.19 -3.83c0.48,-0.56 1.29,-1.05 2.05,-1.29l0.09 -0.03zm14.48 13.16c-0.77,-0.23 -1.42,-0.81 -1.67,-1.47l-4.32 -11.87 -1.11 0 -4.31 11.89c-0.25,0.65 -0.9,1.22 -1.67,1.46l-0.09 0.02 0 0.2 3.39 0 0 -0.2 -0.09 -0.02c-0.77,-0.23 -1.09,-0.81 -0.86,-1.47l0.66 -1.8 4.92 0 0.66 1.8c0.25,0.67 -0.09,1.24 -0.86,1.47l-0.09 0.02 0 0.2 5.53 0 0 -0.2 -0.09 -0.02zm-9.85 -3.86l2.24 -6.2 2.26 6.2 -4.5 0zm20.37 -9.3l0 -0.19 -3.46 0 0 0.19 0.09 0.03c0.77,0.2 1.04,0.77 0.72,1.39l-2.53 4.83 -2.51 -4.82c-0.31,-0.64 -0.04,-1.21 0.72,-1.41l0.09 -0.03 0 -0.19 -5.74 0 0 0.19 0.09 0.03c0.77,0.23 1.49,0.79 1.79,1.41l3.25 6.26 0 3.95c0,0.67 -0.48,1.27 -1.26,1.49l-0.09 0.03 0 0.2 5.38 0 0 -0.2 -0.09 -0.03c-0.75,-0.22 -1.26,-0.82 -1.26,-1.49l0 -4.68 2.93 -5.53c0.31,-0.64 1.02,-1.21 1.79,-1.41l0.09 -0.03zm1.83 12.86c0.92,0.42 2.08,0.71 3.73,0.71 4.09,0 5.31,-1.92 5.31,-3.67 0,-4.11 -8.34,-4.73 -8.34,-7.58 0,-0.93 0.84,-2.12 3.14,-2.12 2.42,0 4.06,1.38 4.32,3.18l0.2 0 0 -3.56 -0.22 0c0,0.34 -0.25,0.51 -0.59,0.51 -0.14,0 -0.29,-0.03 -0.45,-0.09 -0.95,-0.4 -2.08,-0.62 -3.37,-0.62 -3.3,0 -5.29,1.43 -5.29,3.36 0,3.98 8.36,4.73 8.36,7.62 0,1.16 -0.97,2.39 -3.39,2.39 -2.85,0 -4.68,-1.64 -5.01,-3.56l-0.2 0 0 4.15 0.23 0c0,-0.57 0.34,-0.88 0.84,-0.88 0.22,0 0.47,0.06 0.72,0.17z"/>
  </g>
  </g>
 </g>
</svg>
